<svg width="230" height="48" viewBox="0 0 230 48" fill="none" xmlns="http://www.w3.org/2000/svg">
<path d="M18.3826 47.421C16.3932 44.7467 14.4186 42.0914 12.4483 39.4362C8.83351 34.5678 5.2674 29.6635 1.57854 24.8523C0.668497 23.6674 0.666381 22.3874 0.492837 21.0841C0.291781 19.584 0.120353 18.0776 0.0039523 16.5669C-0.0235607 16.203 0.0928404 15.6487 0.34469 15.471C3.678 13.1415 7.13828 11.0448 11.1594 10.0885C13.3393 9.57014 15.4874 9.5511 17.6482 10.5413C17.9064 10.1414 18.1435 9.76479 18.3932 9.39453C20.789 5.84429 24.3466 4.12207 28.3423 3.11073C29.9783 2.69605 31.6227 2.29405 33.2841 2.01054C33.701 1.93861 34.2809 2.24751 34.6449 2.55217C36.3465 3.97819 38.0079 5.45288 39.6671 6.92968C45.5147 12.1323 51.3559 17.3413 57.1992 22.5503C58.3654 23.5891 58.2384 25.3685 56.9453 26.2635C52.7443 29.1747 48.6046 32.1791 44.3189 34.9592C42.0607 36.4233 39.5803 37.5701 37.1402 38.7295C31.2545 41.5265 25.3328 44.2495 19.4239 47C19.1064 47.1523 18.7784 47.2645 18.3826 47.421ZM54.0183 23.6484C53.9442 23.4453 53.9421 23.403 53.9188 23.3818C47.1401 17.1615 40.3634 10.9412 33.5677 4.73775C33.3497 4.53887 32.9222 4.40558 32.6428 4.46905C30.5159 4.94933 28.3529 5.34074 26.2979 6.04317C23.6461 6.94872 21.4133 8.52496 19.9297 11.0152C19.5064 11.724 19.5191 12.217 20.1117 12.8623C26.2175 19.5057 32.2936 26.1788 38.3613 32.8562C38.611 33.1312 38.7147 33.5395 38.8862 33.8865C42.7888 28.1973 48.3782 25.9017 54.0183 23.6484ZM36.4185 33.84C36.0756 33.4465 35.8576 33.1841 35.6269 32.9323C29.8767 26.6295 24.0948 20.352 18.3911 14.0069C16.7467 12.1768 14.8271 11.6076 12.5033 12.0329C8.7425 12.7205 5.50867 14.5591 2.3997 16.6685C2.32774 16.7172 2.31081 16.8462 2.2452 16.9838C8.19859 24.7845 14.1541 32.5896 20.1519 40.4496C21.9911 39.2817 23.7477 38.2365 25.4281 37.0834C27.5 35.6616 29.7455 34.7011 32.2174 34.3076C33.5296 34.1002 34.8608 34.0092 36.4185 33.84Z" fill="#FFC501"/>
<path d="M75.39 12.06C77.59 12.06 79.52 12.49 81.18 13.35C82.86 14.21 84.15 15.44 85.05 17.04C85.97 18.62 86.43 20.46 86.43 22.56C86.43 24.66 85.97 26.5 85.05 28.08C84.15 29.64 82.86 30.85 81.18 31.71C79.52 32.57 77.59 33 75.39 33H68.07V12.06H75.39ZM75.24 29.43C77.44 29.43 79.14 28.83 80.34 27.63C81.54 26.43 82.14 24.74 82.14 22.56C82.14 20.38 81.54 18.68 80.34 17.46C79.14 16.22 77.44 15.6 75.24 15.6H72.27V29.43H75.24ZM105.024 24.33C105.024 24.93 104.984 25.47 104.904 25.95H92.7539C92.8539 27.15 93.2739 28.09 94.0139 28.77C94.7539 29.45 95.6639 29.79 96.7439 29.79C98.3039 29.79 99.4139 29.12 100.074 27.78H104.604C104.124 29.38 103.204 30.7 101.844 31.74C100.484 32.76 98.8139 33.27 96.8339 33.27C95.2339 33.27 93.7939 32.92 92.5139 32.22C91.2539 31.5 90.2639 30.49 89.5439 29.19C88.8439 27.89 88.4939 26.39 88.4939 24.69C88.4939 22.97 88.8439 21.46 89.5439 20.16C90.2439 18.86 91.2239 17.86 92.4839 17.16C93.7439 16.46 95.1939 16.11 96.8339 16.11C98.4139 16.11 99.8239 16.45 101.064 17.13C102.324 17.81 103.294 18.78 103.974 20.04C104.674 21.28 105.024 22.71 105.024 24.33ZM100.674 23.13C100.654 22.05 100.264 21.19 99.5039 20.55C98.7439 19.89 97.8139 19.56 96.7139 19.56C95.6739 19.56 94.7939 19.88 94.0739 20.52C93.3739 21.14 92.9439 22.01 92.7839 23.13H100.674ZM115.02 29.13L119.22 16.38H123.69L117.54 33H112.44L106.32 16.38H110.82L115.02 29.13ZM130.249 29.67H137.149V33H126.049V12.06H130.249V29.67ZM141.948 14.4C141.208 14.4 140.588 14.17 140.088 13.71C139.608 13.23 139.368 12.64 139.368 11.94C139.368 11.24 139.608 10.66 140.088 10.2C140.588 9.72 141.208 9.48 141.948 9.48C142.688 9.48 143.298 9.72 143.778 10.2C144.278 10.66 144.528 11.24 144.528 11.94C144.528 12.64 144.278 13.23 143.778 13.71C143.298 14.17 142.688 14.4 141.948 14.4ZM144.018 16.38V33H139.818V16.38H144.018ZM152.368 18.81C152.908 18.01 153.648 17.36 154.588 16.86C155.548 16.36 156.638 16.11 157.858 16.11C159.278 16.11 160.558 16.46 161.698 17.16C162.858 17.86 163.768 18.86 164.428 20.16C165.108 21.44 165.448 22.93 165.448 24.63C165.448 26.33 165.108 27.84 164.428 29.16C163.768 30.46 162.858 31.47 161.698 32.19C160.558 32.91 159.278 33.27 157.858 33.27C156.618 33.27 155.528 33.03 154.588 32.55C153.668 32.05 152.928 31.41 152.368 30.63V33H148.168V10.8H152.368V18.81ZM161.158 24.63C161.158 23.63 160.948 22.77 160.528 22.05C160.128 21.31 159.588 20.75 158.908 20.37C158.248 19.99 157.528 19.8 156.748 19.8C155.988 19.8 155.268 20 154.588 20.4C153.928 20.78 153.388 21.34 152.968 22.08C152.568 22.82 152.368 23.69 152.368 24.69C152.368 25.69 152.568 26.56 152.968 27.3C153.388 28.04 153.928 28.61 154.588 29.01C155.268 29.39 155.988 29.58 156.748 29.58C157.528 29.58 158.248 29.38 158.908 28.98C159.588 28.58 160.128 28.01 160.528 27.27C160.948 26.53 161.158 25.65 161.158 24.63ZM172.7 18.96C173.24 18.08 173.94 17.39 174.8 16.89C175.68 16.39 176.68 16.14 177.8 16.14V20.55H176.69C175.37 20.55 174.37 20.86 173.69 21.48C173.03 22.1 172.7 23.18 172.7 24.72V33H168.5V16.38H172.7V18.96ZM179.549 24.63C179.549 22.95 179.879 21.46 180.539 20.16C181.219 18.86 182.129 17.86 183.269 17.16C184.429 16.46 185.719 16.11 187.139 16.11C188.379 16.11 189.459 16.36 190.379 16.86C191.319 17.36 192.069 17.99 192.629 18.75V16.38H196.859V33H192.629V30.57C192.089 31.35 191.339 32 190.379 32.52C189.439 33.02 188.349 33.27 187.109 33.27C185.709 33.27 184.429 32.91 183.269 32.19C182.129 31.47 181.219 30.46 180.539 29.16C179.879 27.84 179.549 26.33 179.549 24.63ZM192.629 24.69C192.629 23.67 192.429 22.8 192.029 22.08C191.629 21.34 191.089 20.78 190.409 20.4C189.729 20 188.999 19.8 188.219 19.8C187.439 19.8 186.719 19.99 186.059 20.37C185.399 20.75 184.859 21.31 184.439 22.05C184.039 22.77 183.839 23.63 183.839 24.63C183.839 25.63 184.039 26.51 184.439 27.27C184.859 28.01 185.399 28.58 186.059 28.98C186.739 29.38 187.459 29.58 188.219 29.58C188.999 29.58 189.729 29.39 190.409 29.01C191.089 28.61 191.629 28.05 192.029 27.33C192.429 26.59 192.629 25.71 192.629 24.69ZM205.161 18.96C205.701 18.08 206.401 17.39 207.261 16.89C208.141 16.39 209.141 16.14 210.261 16.14V20.55H209.151C207.831 20.55 206.831 20.86 206.151 21.48C205.491 22.1 205.161 23.18 205.161 24.72V33H200.961V16.38H205.161V18.96ZM228.99 16.38L218.7 40.86H214.23L217.83 32.58L211.17 16.38H215.88L220.17 27.99L224.52 16.38H228.99Z" fill="#FFC501"/>
</svg>
